<?xml version="1.0" encoding="iso-8859-1"?>
<!-- Generator: Adobe Illustrator 19.0.0, SVG Export Plug-In . SVG Version: 6.00 Build 0)  -->
<svg version="1.1" id="Layer_1" xmlns="http://www.w3.org/2000/svg" xmlns:xlink="http://www.w3.org/1999/xlink" x="0px" y="0px"
	 viewBox="0 0 512.001 512.001" style="enable-background:new 0 0 512.001 512.001;" xml:space="preserve">
<g>
	<path style="fill:#61A2EF;" d="M153.459,88.787c-17.498,0-34.114-10.412-41.136-27.583c-4.488-10.972-4.433-23.036,0.154-33.968
		c4.586-10.931,13.154-19.423,24.128-23.909c10.971-4.487,23.033-4.432,33.967,0.154c10.931,4.586,19.423,13.154,23.91,24.127v0.001
		c9.261,22.651-1.631,48.614-24.28,57.876C164.719,87.726,159.043,88.787,153.459,88.787z M153.402,33.409
		c-1.409,0-2.817,0.275-4.16,0.824c-2.717,1.112-4.839,3.214-5.975,5.92c-1.136,2.708-1.149,5.694-0.038,8.412
		c2.296,5.61,8.726,8.306,14.333,6.014c5.608-2.295,8.306-8.724,6.012-14.333l0,0c-1.111-2.717-3.214-4.839-5.921-5.975
		C156.285,33.697,154.844,33.409,153.402,33.409z"/>
	
		<rect x="142.433" y="86.965" transform="matrix(-0.3785 -0.9256 0.9256 -0.3785 148.9173 307.312)" style="fill:#61A2EF;" width="70.398" height="33.39"/>
</g>
<g>
	<path style="fill:#528ACF;" d="M358.542,88.787c-5.586,0-11.258-1.061-16.74-3.302c-22.652-9.262-33.544-35.226-24.281-57.876
		v-0.001C322.007,16.635,330.5,8.066,341.43,3.48c10.932-4.587,22.995-4.641,33.968-0.154c10.972,4.485,19.541,12.978,24.127,23.909
		c4.587,10.931,4.641,22.995,0.154,33.968C392.655,78.373,376.036,88.787,358.542,88.787z M348.426,40.246
		c-2.294,5.61,0.404,12.038,6.014,14.333c5.608,2.293,12.037-0.405,14.332-6.014c1.111-2.717,1.097-5.704-0.038-8.412
		c-1.136-2.707-3.258-4.808-5.974-5.92c-2.715-1.11-5.704-1.097-8.413,0.038C351.639,35.407,349.536,37.529,348.426,40.246
		L348.426,40.246z"/>
	
		<rect x="317.682" y="68.462" transform="matrix(-0.9256 -0.3785 0.3785 -0.9256 604.6421 326.1708)" style="fill:#528ACF;" width="33.39" height="70.398"/>
</g>
<path style="fill:#9ED04D;" d="M256,99.976c-83.108,0-150.722,67.614-150.722,150.723v261.302H256h150.722V250.699
	C406.723,167.59,339.109,99.976,256,99.976z"/>
<path style="fill:#86B143;" d="M406.723,250.699c0-83.109-67.614-150.723-150.722-150.723v412.025h150.722V250.699z"/>
<rect x="217.237" y="403.299" style="fill:#444242;" width="77.532" height="33.39"/>
<rect x="256.003" y="403.299" style="fill:#3A3839;" width="38.766" height="33.39"/>
<circle style="fill:#444242;" cx="256.003" cy="265.331" r="73.737"/>
<path style="fill:#3A3839;" d="M256,191.584c40.727,0,73.742,33.015,73.742,73.742S296.728,339.068,256,339.068
	C256,304.722,256,212.173,256,191.584z"/>
<circle style="fill:#EDEEF0;" cx="256.003" cy="265.331" r="40.358"/>
<path style="fill:#DCDEE2;" d="M256,224.974c22.286,0,40.352,18.066,40.352,40.352c0,22.286-18.066,40.352-40.352,40.352
	C256,279.698,256,258.55,256,224.974z"/>
<circle style="fill:#61A2EF;" cx="256.003" cy="265.331" r="12.111"/>
<path style="fill:#528ACF;" d="M256,253.216c6.688,0,12.111,5.421,12.111,12.111c0,6.689-5.421,12.111-12.111,12.111
	C256,270.423,256,260.776,256,253.216z"/>
<g>
</g>
<g>
</g>
<g>
</g>
<g>
</g>
<g>
</g>
<g>
</g>
<g>
</g>
<g>
</g>
<g>
</g>
<g>
</g>
<g>
</g>
<g>
</g>
<g>
</g>
<g>
</g>
<g>
</g>
</svg>
