<?xml version="1.0" encoding="iso-8859-1"?>
<!-- Generator: Adobe Illustrator 19.0.0, SVG Export Plug-In . SVG Version: 6.00 Build 0)  -->
<svg version="1.1" id="Layer_1" xmlns="http://www.w3.org/2000/svg" xmlns:xlink="http://www.w3.org/1999/xlink" x="0px" y="0px"
	 viewBox="0 0 512 512" style="enable-background:new 0 0 512 512;" xml:space="preserve">
<path style="fill:#78B9EB;" d="M368.941,421.647c0,26.6-15.48,45.176-37.647,45.176c-20.759,0-37.647-16.888-37.647-37.647V323.765
	h-30.118h-15.059h-30.118v105.412c0,20.759-16.888,37.647-37.647,37.647s-37.647-16.888-37.647-37.647H97.882
	c0,45.669,37.155,82.824,82.824,82.824c33.384,0,62.196-19.864,75.294-48.384C269.097,492.136,297.91,512,331.294,512
	c47.217,0,82.824-38.843,82.824-90.353H368.941z"/>
<path style="fill:#5A8BB0;" d="M368.941,421.647c0,26.6-15.48,45.176-37.647,45.176c-20.759,0-37.647-16.888-37.647-37.647V323.765
	h-30.118H256v139.851C269.097,492.136,297.91,512,331.294,512c47.217,0,82.824-38.843,82.824-90.353H368.941z"/>
<path style="fill:#78B9EB;" d="M218.353,165.647v105.412h30.118h15.059h30.118V165.647c0-24.91,20.266-45.176,45.176-45.176V75.294
	c-37.007,0-68.872,22.373-82.824,54.295c-13.952-31.922-45.816-54.295-82.824-54.295v45.176
	C198.087,120.471,218.353,140.737,218.353,165.647z"/>
<path style="fill:#5A8BB0;" d="M256,271.059h7.529h30.118V165.647c0-24.91,20.266-45.176,45.176-45.176V75.294
	c-37.007,0-68.872,22.373-82.824,54.295V271.059z"/>
<circle style="fill:#CCE9F9;" cx="158.118" cy="67.765" r="67.765"/>
<circle style="fill:#3C5D76;" cx="158.118" cy="67.765" r="22.588"/>
<circle style="fill:#93C7EF;" cx="353.882" cy="67.765" r="67.765"/>
<circle style="fill:#1E2E3B;" cx="353.882" cy="67.765" r="22.588"/>
<rect x="97.882" y="195.765" style="fill:#CCE9F9;" width="316.235" height="180.706"/>
<rect x="256" y="195.765" style="fill:#93C7EF;" width="158.118" height="180.706"/>
<path style="fill:#3C5D76;" d="M210.824,271.059c0,24.949,20.227,45.176,45.176,45.176l0,0c24.949,0,45.176-20.227,45.176-45.176
	H210.824z"/>
<path style="fill:#1E2E3B;" d="M256,271.059v45.176c24.949,0,45.176-20.227,45.176-45.176H256z"/>
<g>
</g>
<g>
</g>
<g>
</g>
<g>
</g>
<g>
</g>
<g>
</g>
<g>
</g>
<g>
</g>
<g>
</g>
<g>
</g>
<g>
</g>
<g>
</g>
<g>
</g>
<g>
</g>
<g>
</g>
</svg>
